<svg width="50" height="48" viewBox="0 0 50 48" fill="none" xmlns="http://www.w3.org/2000/svg">
<path opacity="0.2" d="M50 41.625C50 44.6453 38.8072 47.0938 25 47.0938C11.193 47.0938 0 44.6453 0 41.625C0 38.6047 11.1928 36.1562 25 36.1562C38.807 36.1562 50 38.6047 50 41.625Z" fill="url(#paint0_radial_101_187)"/>
<path d="M21.6796 1C20.5097 1 19.5312 1.9297 19.5312 3.09969V5.83406C18.7915 6.08231 18.0737 6.37064 17.3827 6.71297L15.4784 4.80859C14.6511 3.98134 13.3271 3.98134 12.4998 4.80859L7.7146 9.54484C6.88735 10.3721 6.88735 11.6961 7.7146 12.5233L9.61897 14.4277C9.26846 15.1307 8.99299 15.8713 8.74007 16.6248H6.05444C4.88454 16.6248 3.90601 17.5545 3.90601 18.7245V25.4628C3.906 26.6327 4.88454 27.5625 6.05444 27.5625H8.74007C8.99299 28.3161 9.26846 29.0568 9.61897 29.7597L7.7146 31.6641C6.88735 32.4913 6.88735 33.8153 7.7146 34.6425L12.4998 39.3787C13.327 40.206 14.651 40.206 15.4784 39.3787L17.3827 37.4744C18.0737 37.8167 18.7915 38.105 19.5312 38.3533V41.0877C19.5312 42.2576 20.5097 43.1873 21.6796 43.1873H28.369C29.5389 43.1873 30.4687 42.2576 30.4687 41.0877V38.3533C31.2223 38.1004 31.9629 37.8249 32.6658 37.4744L34.5701 39.3787C35.3973 40.206 36.7213 40.206 37.5485 39.3787L42.3337 34.6425C43.1609 33.8153 43.1609 32.4912 42.3337 31.6641L40.3805 29.7109C40.7229 29.0199 41.0112 28.3022 41.2594 27.5625H43.9938C45.1637 27.5625 46.0935 26.6328 46.0935 25.4628V18.7245C46.0935 17.5546 45.1638 16.6248 43.9938 16.6248H41.2594C41.0112 15.8852 40.7229 15.1674 40.3805 14.4764L42.3337 12.5233C43.1609 11.696 43.1609 10.372 42.3337 9.54484L37.5485 4.80859C36.7213 3.98134 35.3973 3.98134 34.5701 4.80859L32.6658 6.71297C31.9628 6.36245 31.2222 6.08698 30.4687 5.83406V3.09969C30.4687 1.92978 29.5389 1 28.369 1H21.6796ZM24.9999 16.625C28.0187 16.625 30.4687 19.075 30.4687 22.0938C30.4687 25.1125 28.0187 27.5625 24.9999 27.5625C21.9812 27.5625 19.5312 25.1125 19.5312 22.0938C19.5312 19.075 21.9812 16.625 24.9999 16.625Z" fill="url(#paint1_linear_101_187)" stroke="url(#paint2_linear_101_187)" stroke-linejoin="round"/>
<path opacity="0.05" d="M25 9.59375C18.1073 9.59375 12.5 15.2011 12.5 22.0938C12.5 28.9864 18.1073 34.5938 25 34.5938C31.8927 34.5938 37.5 28.9864 37.5 22.0938C37.5 15.2011 31.8927 9.59375 25 9.59375ZM25 15.363C28.7153 15.363 31.7308 18.3783 31.7308 22.0938C31.7308 25.8091 28.7155 28.8245 25 28.8245C21.2847 28.8245 18.2692 25.8092 18.2692 22.0938C18.2692 18.3784 21.2845 15.363 25 15.363Z" fill="black"/>
<path d="M24.9999 9.0011C17.7805 9.0011 11.9072 14.8745 11.9072 22.0938C11.9072 29.3131 17.7807 35.1864 24.9999 35.1864C32.2191 35.1864 38.0925 29.313 38.0925 22.0938C38.0925 14.8744 32.2191 9.0011 24.9999 9.0011V9.0011Z" stroke="url(#paint3_linear_101_187)"/>
<path fill-rule="evenodd" clip-rule="evenodd" d="M36.2203 2.56312C36.3778 2.55525 36.5356 2.61895 36.6409 2.74318C36.7811 2.90881 36.7809 3.15453 36.6709 3.34342L33.7273 8.59545C33.463 9.06754 33.6016 9.68509 34.0277 10.3061C34.4577 10.933 35.1847 11.5486 36.1002 12.0467C37.0159 12.5449 37.9178 12.8312 38.6833 12.857C39.4442 12.8828 40.0403 12.6701 40.3053 12.1968L43.2789 6.88473C43.3614 6.73777 43.5014 6.66415 43.6694 6.64464C43.8374 6.62515 44.0079 6.67033 44.1199 6.79469C44.1805 6.8593 44.2194 6.94883 44.2401 7.03479C44.8101 9.48697 44.5404 12.3062 43.4591 14.2374C41.9825 16.8749 38.9013 18.131 35.8899 17.5987C34.6593 18.0119 32.5679 18.7298 30.6332 20.6481L26.6443 16.4042C28.3883 14.6749 29.2035 13.097 29.6723 11.9265C29.2655 10.3082 29.4471 8.59338 30.303 7.06463C31.3838 5.13416 33.6365 3.42526 36.0401 2.59291C36.0916 2.57408 36.1678 2.56551 36.2203 2.5629L36.2203 2.56312Z" fill="url(#paint4_linear_101_187)" stroke="url(#paint5_linear_101_187)" stroke-linecap="round" stroke-linejoin="round"/>
<path fill-rule="evenodd" clip-rule="evenodd" d="M35.953 3.27048C35.9285 3.2796 35.944 3.31128 35.953 3.31141L33.0054 8.58313C32.6077 9.29333 32.8946 10.1321 33.3739 10.8308C33.8579 11.5364 34.608 12.2201 35.5846 12.7516C36.5634 13.2841 37.5901 13.5399 38.4504 13.5689C39.309 13.5979 40.1148 13.3532 40.4975 12.6698L43.4451 7.35718C43.462 7.35458 43.4889 7.35977 43.4861 7.35718C43.4591 7.3284 43.481 7.3781 43.4861 7.39811C44.0297 9.73655 43.7478 12.4392 42.7492 14.2228C41.3832 16.6625 38.5314 17.8278 35.7075 17.3286C32.8967 16.8264 30.4932 14.382 29.8939 12.0569C29.5154 10.5509 29.6766 8.93248 30.467 7.52076C31.4629 5.74201 33.6537 4.06701 35.9531 3.27061L35.9531 3.27048L35.953 3.27048Z" fill="url(#paint6_linear_101_187)"/>
<path d="M34.4843 4.74359L32.5018 8.285C31.943 9.28306 32.3486 10.3734 32.8923 11.1661C33.4417 11.9669 34.2447 12.6653 35.2953 13.2369C36.3503 13.8109 37.4439 14.1343 38.419 14.1672C39.3956 14.2002 40.4775 13.9041 41.0022 12.9668L43.0447 9.27536C43.1319 10.9991 42.9322 12.7332 42.2637 13.9271C41.0316 16.1279 38.4333 17.2072 35.8359 16.7482C35.6458 16.7107 35.4481 16.7441 35.2652 16.8082C33.8574 17.281 32.0996 18.246 30.0688 20.2595L29.1076 21.2198L26.134 18.2487L27.0652 17.3184C28.8961 15.5031 29.8992 13.9002 30.4292 12.5767C30.5091 12.3697 30.5127 12.1617 30.4593 11.9464C30.1149 10.5762 30.2586 9.07533 30.9699 7.80486C31.62 6.64373 32.9894 5.58376 34.4843 4.74376L34.4843 4.74359Z" stroke="url(#paint7_linear_101_187)" stroke-width="0.7" stroke-linecap="round"/>
<path opacity="0.08" fill-rule="evenodd" clip-rule="evenodd" d="M30.2186 16.0875C30.3502 16.0988 30.4664 16.1251 30.549 16.2076L31.1498 16.8378C31.4803 17.1677 31.2394 17.9793 30.5791 18.6384L28.5366 20.6492L26.7344 18.8186L28.7469 16.8078C29.2421 16.3134 29.8239 16.0537 30.2187 16.0875L30.2186 16.0875Z" fill="black"/>
<path d="M30.7922 20.4891L10.3468 42.2844C9.00569 43.6235 6.7095 43.4482 5.17622 41.9171C3.64286 40.3861 3.46731 38.0934 4.80844 36.7543L26.6381 16.3403L30.792 20.4878L30.7922 20.4891ZM9.33122 37.7703C8.56894 37.0092 7.32434 37.0092 6.562 37.7703C5.79972 38.5314 5.79972 39.7742 6.562 40.5353C7.32428 41.2964 8.56887 41.2964 9.33122 40.5353C10.0935 39.7742 10.0935 38.5314 9.33122 37.7703H9.33122Z" fill="url(#paint8_linear_101_187)" stroke="url(#paint9_linear_101_187)" stroke-width="0.99963" stroke-linecap="round" stroke-linejoin="round"/>
<path opacity="0.23106" d="M26.2547 20.8391C25.7638 20.3482 24.8652 20.4564 24.24 21.0816L11.2339 32.904C10.6086 33.5292 11.0918 35.0196 11.5827 35.5105C12.0736 36.0014 13.5638 36.4855 14.1891 35.8603L26.0122 22.8537C26.6374 22.2285 26.7456 21.33 26.2547 20.8392L26.2547 20.8391Z" fill="url(#paint10_linear_101_187)"/>
<defs>
<radialGradient id="paint0_radial_101_187" cx="0" cy="0" r="1" gradientUnits="userSpaceOnUse" gradientTransform="translate(25.0004 41.6253) scale(25.0001 5.46874)">
<stop/>
<stop offset="1" stop-opacity="0"/>
</radialGradient>
<linearGradient id="paint1_linear_101_187" x1="26.6187" y1="0.21875" x2="26.6187" y2="43.9875" gradientUnits="userSpaceOnUse">
<stop stop-color="#F6F6F6"/>
<stop offset="1" stop-color="#D2D2D2"/>
</linearGradient>
<linearGradient id="paint2_linear_101_187" x1="17.0671" y1="0.21875" x2="17.0671" y2="44.0391" gradientUnits="userSpaceOnUse">
<stop stop-color="#AAAAAA"/>
<stop offset="1" stop-color="#8C8C8C"/>
</linearGradient>
<linearGradient id="paint3_linear_101_187" x1="31.9647" y1="35.3419" x2="31.4946" y2="8.84368" gradientUnits="userSpaceOnUse">
<stop stop-color="white"/>
<stop offset="1" stop-color="#959595"/>
</linearGradient>
<linearGradient id="paint4_linear_101_187" x1="36.7827" y1="19.0376" x2="-3.19121" y2="42.1568" gradientUnits="userSpaceOnUse">
<stop stop-color="#D3D7CF"/>
<stop offset="0.18304" stop-color="#BABDB6"/>
<stop offset="0.31893" stop-color="white"/>
<stop offset="0.87644" stop-color="#BABDB6"/>
<stop offset="1" stop-color="#EEEEEC"/>
</linearGradient>
<linearGradient id="paint5_linear_101_187" x1="41.2894" y1="3.98836" x2="35.6038" y2="11.6157" gradientUnits="userSpaceOnUse">
<stop stop-color="#888A85"/>
<stop offset="1" stop-color="#555753"/>
</linearGradient>
<linearGradient id="paint6_linear_101_187" x1="39.7529" y1="11.6145" x2="31.4243" y2="14.6647" gradientUnits="userSpaceOnUse">
<stop stop-color="#BABDB6"/>
<stop offset="1" stop-color="white"/>
</linearGradient>
<linearGradient id="paint7_linear_101_187" x1="7.9046" y1="34.0183" x2="20.2434" y2="50.2962" gradientUnits="userSpaceOnUse">
<stop stop-color="white"/>
<stop offset="1" stop-color="white" stop-opacity="0"/>
</linearGradient>
<linearGradient id="paint8_linear_101_187" x1="15.5732" y1="26.1044" x2="21.3408" y2="31.7488" gradientUnits="userSpaceOnUse">
<stop stop-color="#F8B17E"/>
<stop offset="0.26238" stop-color="#E35D4F"/>
<stop offset="0.66347" stop-color="#C6262E"/>
<stop offset="1" stop-color="#690B54"/>
</linearGradient>
<linearGradient id="paint9_linear_101_187" x1="19.4994" y1="33.1263" x2="13.0429" y2="26.6384" gradientUnits="userSpaceOnUse">
<stop stop-color="#791235"/>
<stop offset="1" stop-color="#DD3B27"/>
</linearGradient>
<linearGradient id="paint10_linear_101_187" x1="14.9016" y1="30.6923" x2="16.4614" y2="32.2056" gradientUnits="userSpaceOnUse">
<stop/>
<stop offset="1" stop-opacity="0"/>
</linearGradient>
</defs>
</svg>
